<svg width="32" height="32" viewBox="0 0 32 32" fill="none" xmlns="http://www.w3.org/2000/svg">
<rect width="32" height="32" rx="10" fill="#2563EB"/>
<path d="M21.3333 9.33334H10.6667C9.92996 9.33334 9.33334 9.92996 9.33334 10.6667V24C9.33334 24.7367 9.92996 25.3333 10.6667 25.3333H21.3333C22.07 25.3333 22.6667 24.7367 22.6667 24V10.6667C22.6667 9.92996 22.07 9.33334 21.3333 9.33334Z" stroke="white" stroke-width="2" stroke-linecap="round" stroke-linejoin="round"/>
<path d="M13.3333 14.6667H18.6666" stroke="white" stroke-width="2" stroke-linecap="round" stroke-linejoin="round"/>
<path d="M13.3333 18.6667H18.6666" stroke="white" stroke-width="2" stroke-linecap="round" stroke-linejoin="round"/>
<path d="M13.3333 22.6667H16" stroke="white" stroke-width="2" stroke-linecap="round" stroke-linejoin="round"/>
<path d="M26 6L27 9L30 10L27 11L26 14L25 11L22 10L25 9L26 6Z" fill="#FBBF24"/>
</svg>
